<svg xmlns="http://www.w3.org/2000/svg" version="1.1" xmlns:xlink="http://www.w3.org/1999/xlink" xmlns:svgjs="http://svgjs.dev/svgjs" width="1000" height="1000" viewBox="0 0 1000 1000"><rect width="1000" height="1000" fill="#ffffff"></rect><g transform="matrix(0.7,0,0,0.7,149.94958510526334,205.18890688259114)"><svg viewBox="0 0 293 247" data-background-color="#ffffff" preserveAspectRatio="xMidYMid meet" height="843" width="1000" xmlns="http://www.w3.org/2000/svg" xmlns:xlink="http://www.w3.org/1999/xlink"><g id="tight-bounds" transform="matrix(1,0,0,1,0.021102234511204188,-0.09999999999999432)"><svg viewBox="0 0 292.9577955309776 247.2" height="247.2" width="292.9577955309776"><g><svg viewBox="0 0 395.52000000000004 333.7427625804942" height="247.2" width="292.9577955309776"><g transform="matrix(1,0,0,1,0,244.12142921486037)"><svg viewBox="0 0 395.52000000000004 89.62133336563383" height="89.62133336563383" width="395.52000000000004"><g><svg viewBox="0 0 395.52000000000004 89.62133336563383" height="89.62133336563383" width="395.52000000000004"><g><rect width="143.59152236881755" height="4.359122458911551" y="72.50549551645973" fill="#124948" data-fill-palette-color="tertiary"></rect><rect width="143.59152236881755" height="4.359122458911551" y="72.50549551645973" x="251.9284776311825" fill="#124948" data-fill-palette-color="tertiary"></rect></g><g><svg viewBox="0 0 395.52000000000004 48.337464788732404" height="48.337464788732404" width="395.52000000000004"><g transform="matrix(1,0,0,1,0,0)"><svg width="395.52000000000004" viewBox="3 -41.05 340.77 41.65" height="48.337464788732404" data-palette-color="#124948"><path d="M10.65 0L3 0 3-40.5 9.3-40.5 17.6-21 17.6-40.5 25-40.5 25 0 18.95 0 10.65-21 10.65 0ZM42.65 0.6L42.65 0.6Q38.1 0.6 35.45-1 32.8-2.6 31.65-5.6 30.5-8.6 30.5-12.75L30.5-12.75 30.5-27.8Q30.5-32 31.65-34.95 32.8-37.9 35.45-39.48 38.1-41.05 42.65-41.05L42.65-41.05Q47.25-41.05 49.92-39.48 52.6-37.9 53.75-34.95 54.9-32 54.9-27.8L54.9-27.8 54.9-12.75Q54.9-8.6 53.75-5.6 52.6-2.6 49.92-1 47.25 0.6 42.65 0.6ZM42.65-5.75L42.65-5.75Q44.05-5.75 44.7-6.45 45.35-7.15 45.55-8.25 45.75-9.35 45.75-10.5L45.75-10.5 45.75-30Q45.75-31.2 45.55-32.27 45.35-33.35 44.7-34.05 44.05-34.75 42.65-34.75L42.65-34.75Q41.35-34.75 40.7-34.05 40.05-33.35 39.85-32.27 39.65-31.2 39.65-30L39.65-30 39.65-10.5Q39.65-9.35 39.82-8.25 40-7.15 40.62-6.45 41.25-5.75 42.65-5.75ZM69.3 0L60.34 0 60.34-40.5 71.5-40.5Q75.59-40.5 78.59-39.6 81.59-38.7 83.27-36.38 84.94-34.05 84.94-29.8L84.94-29.8Q84.94-27.3 84.55-25.35 84.14-23.4 83.07-21.98 82-20.55 80-19.6L80-19.6 85.55 0 76.3 0 71.84-18.15 69.3-18.15 69.3 0ZM69.3-34.5L69.3-23.3 71.8-23.3Q73.69-23.3 74.75-23.98 75.8-24.65 76.22-25.93 76.64-27.2 76.64-29L76.64-29Q76.64-31.6 75.69-33.05 74.75-34.5 72.19-34.5L72.19-34.5 69.3-34.5ZM102.59 0L93.59 0 93.59-33.85 87.49-33.85 87.49-40.5 108.64-40.5 108.64-33.85 102.59-33.85 102.59 0ZM121.29 0L112.34 0 112.34-40.5 121.29-40.5 121.29-24.1 127.54-24.1 127.54-40.5 136.54-40.5 136.54 0 127.54 0 127.54-17.7 121.29-17.7 121.29 0ZM165.84 0L155.49 0 155.49-40.5 165.74-40.5Q171.04-40.5 173.99-39.18 176.94-37.85 178.14-35.02 179.34-32.2 179.34-27.7L179.34-27.7 179.34-13Q179.34-8.45 178.14-5.58 176.94-2.7 174.01-1.35 171.09 0 165.84 0L165.84 0ZM164.44-34.25L164.44-6.2 165.84-6.2Q167.89-6.2 168.79-6.8 169.69-7.4 169.91-8.6 170.14-9.8 170.14-11.6L170.14-11.6 170.14-29.25Q170.14-31.05 169.86-32.15 169.59-33.25 168.69-33.75 167.79-34.25 165.79-34.25L165.79-34.25 164.44-34.25ZM193.78 0L184.83 0 184.83-40.5 193.78-40.5 193.78 0ZM206.33 0L197.88 0 205.53-40.5 215.73-40.5 223.28 0 215.03 0 213.68-8.55 207.73-8.55 206.33 0ZM210.68-29.7L208.53-13.9 212.83-13.9 210.68-29.7ZM233.68 0L227.23 0 227.93-40.5 237.53-40.5 241.98-16.95 246.78-40.5 256.03-40.5 256.73 0 250.38 0 249.63-26.95 244.93 0 239.28 0 234.28-27.15 233.68 0ZM274.18 0.6L274.18 0.6Q269.63 0.6 266.98-1 264.33-2.6 263.18-5.6 262.03-8.6 262.03-12.75L262.03-12.75 262.03-27.8Q262.03-32 263.18-34.95 264.33-37.9 266.98-39.48 269.63-41.05 274.18-41.05L274.18-41.05Q278.78-41.05 281.45-39.48 284.13-37.9 285.28-34.95 286.43-32 286.43-27.8L286.43-27.8 286.43-12.75Q286.43-8.6 285.28-5.6 284.13-2.6 281.45-1 278.78 0.6 274.18 0.6ZM274.18-5.75L274.18-5.75Q275.58-5.75 276.23-6.45 276.88-7.15 277.08-8.25 277.28-9.35 277.28-10.5L277.28-10.5 277.28-30Q277.28-31.2 277.08-32.27 276.88-33.35 276.23-34.05 275.58-34.75 274.18-34.75L274.18-34.75Q272.88-34.75 272.23-34.05 271.58-33.35 271.38-32.27 271.18-31.2 271.18-30L271.18-30 271.18-10.5Q271.18-9.35 271.35-8.25 271.53-7.15 272.15-6.45 272.78-5.75 274.18-5.75ZM299.52 0L291.87 0 291.87-40.5 298.17-40.5 306.47-21 306.47-40.5 313.87-40.5 313.87 0 307.82 0 299.52-21 299.52 0ZM330.27 0L319.92 0 319.92-40.5 330.17-40.5Q335.47-40.5 338.42-39.18 341.37-37.85 342.57-35.02 343.77-32.2 343.77-27.7L343.77-27.7 343.77-13Q343.77-8.45 342.57-5.58 341.37-2.7 338.45-1.35 335.52 0 330.27 0L330.27 0ZM328.87-34.25L328.87-6.2 330.27-6.2Q332.32-6.2 333.22-6.8 334.12-7.4 334.35-8.6 334.57-9.8 334.57-11.6L334.57-11.6 334.57-29.25Q334.57-31.05 334.3-32.15 334.02-33.25 333.12-33.75 332.22-34.25 330.22-34.25L330.22-34.25 328.87-34.25Z" opacity="1" transform="matrix(1,0,0,1,0,0)" fill="#000000" class="undefined-text-0" data-fill-palette-color="primary" id="text-0"></path></svg></g></svg></g><g transform="matrix(1,0,0,1,143.59152236881755,59.7487801261972)"><svg viewBox="0 0 108.33695526236491 29.87255323943663" height="29.87255323943663" width="108.33695526236491"><g transform="matrix(1,0,0,1,8,0)"><svg width="92.33695526236491" viewBox="4.22 -36.38 113.57000000000001 36.75" height="29.87255323943663" data-palette-color="#abddd9"><path d="M10.21-16.97L10.21-2.73Q10.21-0.63 10.3 0L10.3 0 4.22 0 4.22-34.91 10.21-34.91 10.21-23.61Q13.35-26 16.7-26L16.7-26Q20.8-26 23.29-23.29L23.29-23.29Q25.73-20.58 25.73-16.11L25.73-16.11 25.73-6.4Q25.73-2.27 25.85-1.44 25.98-0.61 26.18-0.37 26.39-0.12 26.54 0.07L26.54 0.07 26.49 0.17Q24.51 0 23.61 0L23.61 0 21.88 0Q21.07 0 19.75 0.07L19.75 0.07 19.75-14.06Q19.75-17.43 18.26-19.04L18.26-19.04Q17.14-20.26 15.21-20.26L15.21-20.26Q12.35-20.26 10.21-16.97L10.21-16.97ZM30.86-12.62L30.86-12.62Q30.86-15.31 31.77-17.76 32.69-20.21 34.4-22.05L34.4-22.05Q38.13-26 44.09-26L44.09-26Q50.02-26 53.51-22.27L53.51-22.27Q56.86-18.7 56.86-13.01L56.86-13.01Q56.86-7.32 53.42-3.59L53.42-3.59Q49.78 0.37 43.77 0.37L43.77 0.37Q37.57 0.37 34.06-3.52L34.06-3.52Q30.86-7.06 30.86-12.62ZM36.79-12.77L36.79-12.77Q36.79-11.23 37.3-9.79 37.81-8.35 38.77-7.32L38.77-7.32Q40.79-5.1 44.09-5.1L44.09-5.1Q47.14-5.1 48.9-7.28L48.9-7.28Q50.61-9.38 50.61-12.74L50.61-12.74Q50.61-16.16 48.85-18.26L48.85-18.26Q46.97-20.51 43.7-20.51L43.7-20.51Q40.38-20.51 38.5-18.12L38.5-18.12Q36.79-15.92 36.79-12.77ZM73.26-5.37L73.26-5.37Q76.41-5.37 77.58-7.01L77.58-7.01 77.78-7.01 77.85-1.34Q76.66-0.15 73.41 0.24L73.41 0.24Q72.53 0.37 71.22 0.37 69.92 0.37 68.39-0.12 66.87-0.61 65.79-1.71L65.79-1.71Q63.57-3.98 63.57-8.81L63.57-8.81 63.57-19.9 59.88-19.9Q59.86-20.61 59.86-21.34L59.86-21.34 59.86-25.1Q59.86-25.51 59.88-25.51L59.88-25.51 63.57-25.51 63.57-32.47 69.55-32.47 69.55-25.51 76.26-25.51 76.26-19.9 69.55-19.9 69.55-9.94Q69.55-6.1 71.67-5.57L71.67-5.57Q72.36-5.37 73.26-5.37ZM81.58-12.55L81.58-12.55Q81.58-15.41 82.56-17.85 83.54-20.29 85.32-22.12L85.32-22.12Q89.13-26 95.28-26L95.28-26Q100.48-26 103.63-22.56L103.63-22.56Q106.73-19.24 106.73-14.21L106.73-14.21Q106.73-12.28 106.44-11.57L106.44-11.57Q104-10.89 96.5-10.89L96.5-10.89 87.91-10.89Q88.54-8.28 90.86-6.82 93.18-5.37 96.89-5.37L96.89-5.37Q100.77-5.37 103.56-6.76L103.56-6.76Q104.29-7.13 104.66-7.45L104.66-7.45Q104.61-6.42 104.53-5.35L104.53-5.35 104.26-1.54Q102.41-0.27 98.26 0.22L98.26 0.22Q97.04 0.37 95.92 0.37L95.92 0.37Q89.71 0.37 85.66-3.25L85.66-3.25Q81.58-6.88 81.58-12.55ZM100.24-15.63L100.24-15.63Q99.24-20.87 94.52-20.87L94.52-20.87Q90.81-20.87 88.88-17.68L88.88-17.68Q88.3-16.7 87.98-15.53L87.98-15.53Q88.57-15.5 89.42-15.48L89.42-15.48 91.23-15.48Q92.13-15.45 92.96-15.45L92.96-15.45 94.35-15.45Q95.6-15.45 96.79-15.48L96.79-15.48 98.8-15.55Q99.6-15.58 100.24-15.63ZM117.69-36.38L117.69-2.73Q117.69-0.63 117.79 0L117.79 0 111.59 0 111.59-36.38 117.69-36.38Z" opacity="1" transform="matrix(1,0,0,1,0,0)" fill="#000000" class="undefined-text-1" data-fill-palette-color="secondary" id="text-1"></path></svg></g></svg></g></svg></g></svg></g><g transform="matrix(1,0,0,1,87.11060073003462,0)"><svg viewBox="0 0 221.2987985399308 221.2987985399308" height="221.2987985399308" width="221.2987985399308"><g><svg></svg></g><g id="icon-0"><svg viewBox="0 0 221.2987985399308 221.2987985399308" height="221.2987985399308" width="221.2987985399308"><g><path d="M0 110.649c0-61.11 49.539-110.649 110.649-110.649 61.11 0 110.649 49.539 110.65 110.649 0 61.11-49.539 110.649-110.65 110.65-61.11 0-110.649-49.539-110.649-110.65zM110.649 216.94c58.703 0 106.29-47.588 106.291-106.291 0-58.703-47.588-106.29-106.291-106.29-58.703 0-106.29 47.588-106.29 106.29 0 58.703 47.588 106.29 106.29 106.291z" data-fill-palette-color="tertiary" fill="#124948" stroke="transparent"></path></g><g transform="matrix(1,0,0,1,43.786199263016215,53.96095203931263)"><svg viewBox="0 0 133.72640001389837 113.37689446130554" height="113.37689446130554" width="133.72640001389837"><g><svg xmlns="http://www.w3.org/2000/svg" xmlns:xlink="http://www.w3.org/1999/xlink" version="1.1" x="0" y="0" viewBox="5.015 13 88.623 75.137" enable-background="new 0 0 100 100" xml:space="preserve" height="113.37689446130554" width="133.72640001389837" class="icon-wb-0" data-fill-palette-color="accent" id="wb-0"><polygon points="48.305,35.232 48.298,13 29.07,13 " fill="#000000" data-fill-palette-color="accent"></polygon><polygon points="48.318,82.991 48.306,39 30.102,39 " fill="#000000" data-fill-palette-color="accent"></polygon><polygon points="27.853,39 5.015,39 48.2,88.137 " fill="#000000" data-fill-palette-color="accent"></polygon><polygon points="27,37 27,14.125 5.327,37 " fill="#000000" data-fill-palette-color="accent"></polygon><polygon points="46.667,37 29,16.261 29,37 " fill="#000000" data-fill-palette-color="accent"></polygon><polygon points="50.349,35.232 50.354,13 69.583,13 " fill="#000000" data-fill-palette-color="accent"></polygon><polygon points="50.335,82.991 50.348,39 68.551,39 " fill="#000000" data-fill-palette-color="accent"></polygon><polygon points="70.801,39 93.638,39 50.453,88.137 " fill="#000000" data-fill-palette-color="accent"></polygon><polygon points="71,37 71,14.125 93.326,37 " fill="#000000" data-fill-palette-color="accent"></polygon><polygon points="51.986,37 69,16.261 69,37 " fill="#000000" data-fill-palette-color="accent"></polygon></svg></g></svg></g></svg></g></svg></g><g></g></svg></g><defs></defs></svg><rect width="292.9577955309776" height="247.2" fill="none" stroke="none" visibility="hidden"></rect></g></svg></g></svg>